<svg width="24" height="24" viewBox="0 0 24 24" fill="none" xmlns="http://www.w3.org/2000/svg">
<path d="M10.9306 19.2527H12.3322C12.432 19.2528 12.5309 19.2333 12.6232 19.1952C12.7155 19.1571 12.7994 19.1012 12.8701 19.0306C12.9407 18.9601 12.9968 18.8763 13.035 18.784C13.0733 18.6918 13.093 18.5929 13.093 18.4931V12.6983C13.0928 12.5985 13.1124 12.4996 13.1505 12.4074C13.1886 12.3152 13.2445 12.2314 13.3151 12.1608C13.3857 12.0902 13.4695 12.0343 13.5617 11.9962C13.6539 11.9581 13.7528 11.9385 13.8526 11.9387H14.4346C14.6244 11.9385 14.8074 11.8674 14.9475 11.7393C15.0876 11.6112 15.1747 11.4353 15.1918 11.2463L15.2746 10.3163C15.2839 10.2114 15.2713 10.1058 15.2376 10.006C15.2039 9.90632 15.1499 9.81467 15.0789 9.73693C15.008 9.65919 14.9216 9.59705 14.8254 9.55445C14.7291 9.51185 14.625 9.48972 14.5198 9.48947H13.855C13.7551 9.48947 13.6562 9.46978 13.564 9.43154C13.4718 9.39329 13.388 9.33723 13.3174 9.26656C13.2469 9.1959 13.191 9.11202 13.1528 9.01973C13.1147 8.92743 13.0952 8.82852 13.0954 8.72867V8.09387C13.0954 7.51667 13.2154 7.28867 13.7698 7.28867H14.5906C14.792 7.28867 14.9852 7.20864 15.1277 7.06619C15.2701 6.92374 15.3502 6.73053 15.3502 6.52907V5.50667C15.3503 5.40687 15.3308 5.30803 15.2927 5.2158C15.2546 5.12357 15.1986 5.03977 15.128 4.9692C15.0575 4.89863 14.9737 4.84269 14.8814 4.80457C14.7892 4.76645 14.6904 4.74691 14.5906 4.74707H13.3198C11.1466 4.74707 10.1662 5.70707 10.1662 7.53587V8.72867C10.1663 8.82852 10.1468 8.92743 10.1087 9.01973C10.0706 9.11202 10.0147 9.1959 9.94412 9.26656C9.87356 9.33723 9.78977 9.39329 9.69754 9.43154C9.6053 9.46978 9.50643 9.48947 9.40657 9.48947C9.20511 9.48947 9.01191 9.5695 8.86945 9.71195C8.727 9.85441 8.64697 10.0476 8.64697 10.2491V11.2091C8.64697 11.4105 8.727 11.6037 8.86945 11.7462C9.01191 11.8886 9.20511 11.9687 9.40657 11.9687C9.60803 11.9687 9.80124 12.0487 9.94369 12.1912C10.0861 12.3336 10.1662 12.5268 10.1662 12.7283V18.4883C10.1655 18.5888 10.1849 18.6885 10.2231 18.7815C10.2613 18.8746 10.3175 18.9591 10.3886 19.0302C10.4597 19.1013 10.5443 19.1576 10.6373 19.1958C10.7303 19.234 10.83 19.2533 10.9306 19.2527Z" fill="white"/>
</svg>
