<svg width="24" height="24" viewBox="0 0 24 24" fill="none" xmlns="http://www.w3.org/2000/svg">
<path d="M12 6.55474C13.7568 6.55474 13.9644 6.56194 14.6592 6.59314C15.0764 6.598 15.4897 6.67472 15.8808 6.81994C16.1644 6.92942 16.4219 7.09701 16.6368 7.31194C16.8517 7.52687 17.0193 7.78439 17.1288 8.06794C17.274 8.45951 17.3507 8.87315 17.3556 9.29074C17.3868 9.98434 17.394 10.1919 17.394 11.9487C17.394 13.7055 17.3868 13.9143 17.3556 14.6079C17.3508 15.0251 17.274 15.4384 17.1288 15.8295C17.0193 16.1131 16.8517 16.3706 16.6368 16.5855C16.4219 16.8005 16.1644 16.9681 15.8808 17.0775C15.4898 17.2234 15.0765 17.3001 14.6592 17.3043C13.9644 17.3367 13.7568 17.3427 12 17.3427C10.2432 17.3427 10.0356 17.3367 9.34081 17.3043C8.92354 17.3001 8.51019 17.2234 8.11921 17.0775C7.83566 16.9681 7.57814 16.8005 7.36321 16.5855C7.14828 16.3706 6.98069 16.1131 6.87121 15.8295C6.72599 15.4384 6.64927 15.0251 6.64441 14.6079C6.61321 13.9143 6.60601 13.7055 6.60601 11.9487C6.60601 10.1919 6.61321 9.98434 6.64441 9.29074C6.6493 8.87315 6.72602 8.45951 6.87121 8.06794C6.98069 7.78439 7.14828 7.52687 7.36321 7.31194C7.57814 7.09701 7.83566 6.92942 8.11921 6.81994C8.51036 6.67472 8.9236 6.598 9.34081 6.59314C10.0356 6.56194 10.2432 6.55474 12 6.55474ZM12 5.36914C10.2132 5.36914 9.98881 5.37634 9.28681 5.40874C8.74101 5.42038 8.20106 5.52382 7.68961 5.71474C7.2536 5.88357 6.85763 6.14154 6.52702 6.47215C6.19641 6.80276 5.93844 7.19873 5.76961 7.63474C5.57568 8.14839 5.47097 8.69141 5.46001 9.24034C5.42761 9.94234 5.42041 10.1667 5.42041 11.9535C5.42041 13.7403 5.42761 13.9647 5.46001 14.6667C5.47105 15.2126 5.57452 15.7526 5.76601 16.2639C5.93484 16.6999 6.19281 17.0959 6.52342 17.4265C6.85403 17.7571 7.25 18.0151 7.68601 18.1839C8.19713 18.376 8.73728 18.4795 9.28321 18.4899C9.98521 18.5223 10.2096 18.5295 11.9964 18.5295C13.7832 18.5295 14.0076 18.5223 14.7096 18.4899C15.2555 18.4795 15.7957 18.376 16.3068 18.1839C16.7428 18.0151 17.1388 17.7571 17.4694 17.4265C17.8 17.0959 18.058 16.6999 18.2268 16.2639C18.4183 15.7526 18.5218 15.2126 18.5328 14.6667C18.5652 13.9647 18.5724 13.7403 18.5724 11.9535C18.5724 10.1667 18.5652 9.94234 18.5328 9.24034C18.5267 8.694 18.4277 8.15268 18.24 7.63954C18.0712 7.20353 17.8132 6.80756 17.4826 6.47695C17.152 6.14634 16.756 5.88837 16.32 5.71954C15.8086 5.52862 15.2686 5.42518 14.7228 5.41354C14.0208 5.38114 13.7964 5.37394 12.0096 5.37394" fill="black"/>
<path d="M11.9998 8.57031C11.3314 8.57031 10.678 8.76853 10.1223 9.13989C9.56657 9.51126 9.13345 10.0391 8.87772 10.6566C8.62199 11.2742 8.55514 11.9537 8.68563 12.6092C8.81611 13.2647 9.13807 13.8669 9.61078 14.3394C10.0835 14.8119 10.6857 15.1337 11.3413 15.2639C11.9969 15.3942 12.6764 15.3271 13.2938 15.0711C13.9112 14.8152 14.4389 14.3819 14.8101 13.826C15.1813 13.2702 15.3792 12.6167 15.379 11.9483C15.379 11.5046 15.2916 11.0652 15.1218 10.6553C14.9519 10.2454 14.703 9.87297 14.3892 9.55928C14.0754 9.24559 13.7029 8.99679 13.2929 8.8271C12.8829 8.65741 12.4435 8.57016 11.9998 8.57031ZM11.9998 14.1419C11.566 14.1419 11.1418 14.0133 10.7811 13.7722C10.4204 13.5312 10.1392 13.1886 9.97318 12.7878C9.80716 12.3869 9.76372 11.9459 9.84836 11.5204C9.933 11.0948 10.1419 10.704 10.4487 10.3972C10.7555 10.0904 11.1463 9.8815 11.5719 9.79686C11.9974 9.71222 12.4384 9.75566 12.8393 9.92169C13.2401 10.0877 13.5827 10.3689 13.8237 10.7296C14.0648 11.0903 14.1934 11.5145 14.1934 11.9483C14.1931 12.53 13.9619 13.0878 13.5506 13.4991C13.1393 13.9104 12.5815 14.1416 11.9998 14.1419Z" fill="black"/>
<path d="M16.3019 8.43608C16.3019 8.59225 16.2555 8.74491 16.1688 8.87476C16.082 9.00461 15.9587 9.10582 15.8144 9.16558C15.6701 9.22534 15.5114 9.24098 15.3582 9.21051C15.205 9.18005 15.0644 9.10484 14.9539 8.99442C14.8435 8.88399 14.7683 8.74329 14.7378 8.59013C14.7074 8.43696 14.723 8.2782 14.7828 8.13392C14.8425 7.98964 14.9437 7.86632 15.0736 7.77956C15.2034 7.69279 15.3561 7.64648 15.5123 7.64648C15.7217 7.64648 15.9225 7.72967 16.0706 7.87775C16.2187 8.02583 16.3019 8.22667 16.3019 8.43608Z" fill="black"/>
</svg>
