<svg width="24" height="24" viewBox="0 0 24 24" fill="none" xmlns="http://www.w3.org/2000/svg">
<path d="M9.04308 9.36133H6.55908V17.3845H9.04308V9.36133Z" fill="white"/>
<path d="M7.78793 8.31017C8.08135 8.31279 8.36893 8.22817 8.61418 8.06706C8.85943 7.90594 9.05128 7.6756 9.16538 7.40526C9.27949 7.13492 9.3107 6.83677 9.25506 6.54866C9.19943 6.26055 9.05944 5.99546 8.85289 5.78705C8.64633 5.57863 8.38251 5.43628 8.0949 5.37807C7.8073 5.31985 7.50889 5.3484 7.23754 5.46008C6.96619 5.57176 6.73413 5.76154 6.57083 6.00533C6.40753 6.24912 6.32034 6.53594 6.32032 6.82937C6.31873 7.22031 6.47242 7.59588 6.74761 7.87355C7.02281 8.15122 7.39699 8.30827 7.78793 8.31017Z" fill="white"/>
<path d="M13.0126 13.1725C13.0126 12.0445 13.531 11.3725 14.5258 11.3725C15.4378 11.3725 15.877 12.0181 15.877 13.1725V17.3845H18.349V12.3049C18.349 10.1557 17.131 9.11654 15.4294 9.11654C14.9469 9.10918 14.4707 9.22689 14.0471 9.45821C13.6236 9.68953 13.2672 10.0266 13.0126 10.4365V9.36014H10.6294V17.3833H13.0126V13.1725Z" fill="white"/>
</svg>
