<svg width="24" height="24" viewBox="0 0 24 24" fill="none" xmlns="http://www.w3.org/2000/svg">
<path d="M5.60645 16.0175C6.80604 16.7879 8.20195 17.197 9.62765 17.1959C14.4984 17.1959 17.25 13.0823 17.0844 9.39587C17.5981 9.02542 18.0415 8.56621 18.3936 8.03987C17.9147 8.25189 17.4066 8.39103 16.8864 8.45267C17.4345 8.1254 17.8445 7.60962 18.0396 7.00187C17.525 7.30692 16.9622 7.522 16.3752 7.63787C15.98 7.21786 15.4576 6.93966 14.8885 6.84622C14.3194 6.75278 13.7354 6.8493 13.2266 7.12089C12.7179 7.39247 12.3127 7.824 12.0736 8.34883C11.8346 8.87366 11.775 9.46259 11.904 10.0247C10.8609 9.97296 9.84025 9.70219 8.90864 9.22997C7.97702 8.75775 7.15526 8.09467 6.49685 7.28387C6.16121 7.86151 6.05839 8.54536 6.20933 9.19616C6.36027 9.84696 6.75361 10.4157 7.30925 10.7867C6.89224 10.7738 6.48442 10.6611 6.12005 10.4579C6.11261 11.0694 6.31878 11.6644 6.70301 12.1402C7.08725 12.616 7.62546 12.9428 8.22485 13.0643C7.83865 13.1696 7.43344 13.1848 7.04044 13.1087C7.20752 13.6302 7.53367 14.0862 7.97314 14.4129C8.41261 14.7396 8.94333 14.9205 9.49084 14.9303C8.39138 15.7933 6.99418 16.1844 5.60645 16.0175Z" fill="black"/>
</svg>
